<svg xmlns="http://www.w3.org/2000/svg" width="250" height="250" fill="none" viewBox="0 0 250 250">
<!-- SVG created with Arrow, by QuiverAI (https://quiver.ai) -->
  <path d="m230.6 64.36h-22.5v137.5h22.5v-137.5z" fill="url(#paint0_linear_453_31174)"/>
  <path d="m231.3 84.18c-8.58 12.93-17.18 23.24-23.56 27.91l0.11-47.63h22.74l0.71 19.72z" fill="url(#paint1_linear_453_31174)"/>
  <path d="m199.1 92.17h-22.5v77.9l22.5 22.67v-100.6z" fill="url(#paint2_linear_453_31174)"/>
  <path d="m198.4 117.9c-9.51 8.31-20.57 14.08-21.86 14.08v-39.81h22.5l-0.64 25.73z" fill="url(#paint3_linear_453_31174)"/>
  <path d="m117.9 14.99c-59.6 0-107 47.5-107 111.3 0 60.94 49.85 109.1 106.5 108.7 35.42-0.27 57.82-13.7 78.14-32.75l-32.09-32.08c-12.37 12-25.51 18.1-43.41 18.1-35.7 0-63.51-30.1-63.51-62.55 0-34.32 28.12-63.98 62.13-63.98 14.14 0 27.65 5.48 37.45 13.47l31.88-32.91c-19.05-17.2-42.46-27.32-70.12-27.32z" fill="url(#paint4_linear_453_31174)" stroke="url(#paint5_linear_453_31174)" stroke-miterlimit="10" stroke-width="6.094"/>
  <path d="m13.45 125.1h39.8" stroke="#B6F0C0" stroke-miterlimit="10" stroke-width="4.266"/>
  <path d="m32.19 66.19v32.54" stroke="#C3EFB1" stroke-miterlimit="10" stroke-width="3.672"/>
  <path d="m46.88 47.83-0.32 43.13 10.96 11.72" stroke="#C3EFB1" stroke-miterlimit="10" stroke-width="3.672"/>
  <path d="m84.56 24.58v21.82l5.48 4.58v15.63" stroke="#C3EFB1" stroke-miterlimit="10" stroke-width="3.078"/>
  <path d="m104.7 39.58v21.82" stroke="#C3EFB1" stroke-miterlimit="10" stroke-width="3.078"/>
  <path d="m119.1 59.1v-13.29l8.62-8.62h14.07" stroke="#C3EFB1" stroke-miterlimit="10" stroke-width="3.672"/>
  <path d="m129.1 59.1 7.8-7.39h15.4" stroke="#C3EFB1" stroke-miterlimit="10" stroke-width="3.672"/>
  <path d="m57.62 148.2-10.74 11.64v42.49" stroke="#78D5A7" stroke-miterlimit="10" stroke-width="3.672"/>
  <path d="m66.41 164.1v24.56" stroke="#78D5A7" stroke-miterlimit="10" stroke-width="3.672"/>
  <path d="m84.67 227.1v-22.67l5.37-4.78v-14.59" stroke="#78D5A7" stroke-miterlimit="10" stroke-width="3.672"/>
  <path d="m104.6 190.1v19.36" stroke="#78D5A7" stroke-miterlimit="10" stroke-width="3.672"/>
  <path d="m118.7 191.5v12.83l8.63 8.63h14.65" stroke="#78D5A7" stroke-miterlimit="10" stroke-width="4.266"/>
  <path d="m128.4 191.5 7.8 6.32h19.72" stroke="#78D5A7" stroke-miterlimit="10" stroke-width="4.266"/>
  <path d="m32.91 152.2v34.37" stroke="#91E6B6" stroke-miterlimit="10" stroke-width="3.672"/>
  <path d="m104.7 39.37c4-0.94 4.69-3.72 4.69-5.46 0-4-2.54-5.63-5-5.63-3.66 0-5.47 2.62-5.47 5.52 0 3.24 2.71 5.26 5.78 5.57z" stroke="#C3EFB1" stroke-miterlimit="10" stroke-width="3.672"/>
  <path d="m65.94 61.4c-4-0.94-4.69-3.72-4.69-5.45 0-4 2.54-5.64 5-5.64 3.66 0 5.47 2.62 5.47 5.53 0 3.23-2.71 5.25-5.78 5.56z" stroke="#C3EFB1" stroke-miterlimit="10" stroke-width="3.672"/>
  <path d="m147.3 42.75c4.01 0 5.39-2.81 5.39-5.71 0-3.34-2.45-5.01-4.91-5.01-3.89 0-5.51 2.8-5.63 5.01-0.13 2.85 2.6 5.71 5.15 5.71z" stroke="#C3EFB1" stroke-miterlimit="10" stroke-width="3.672"/>
  <path d="m158.9 58.24c4 0 5.38-2.81 5.38-5.71 0-3.34-2.45-5.02-4.91-5.02-3.89 0-5.51 2.8-5.63 5.02-0.13 2.85 2.6 5.71 5.16 5.71z" stroke="#C3EFB1" stroke-miterlimit="10" stroke-width="3.672"/>
  <path d="m32.91 151.9c-4-0.94-4.69-3.72-4.69-5.46 0-4 2.54-5.63 5-5.63 3.66 0 5.47 2.62 5.47 5.53 0 3.23-2.71 5.25-5.78 5.56z" stroke="#78D5A7" stroke-miterlimit="10" stroke-width="3.672"/>
  <path d="m66.04 200.4c4.01 0 5.39-2.81 5.39-5.72 0-3.34-2.46-5.01-4.91-5.01-3.89 0-5.51 2.8-5.63 5.01-0.13 2.86 2.6 5.72 5.15 5.72z" stroke="#78D5A7" stroke-miterlimit="10" stroke-width="3.672"/>
  <path d="m104.4 222.5c4-0.94 4.69-3.73 4.69-5.46 0-4-2.54-5.63-5-5.63-3.66 0-5.47 2.62-5.47 5.52 0 3.24 2.71 5.26 5.78 5.57z" stroke="#78D5A7" stroke-miterlimit="10" stroke-width="3.672"/>
  <path d="m147.3 218.7c4.01 0 5.39-2.81 5.39-5.71 0-3.34-2.45-5.01-4.91-5.01-3.89 0-5.51 2.8-5.63 5.01-0.13 2.85 2.6 5.71 5.15 5.71z" stroke="#78D5A7" stroke-miterlimit="10" stroke-width="3.672"/>
  <path d="m162.1 203.3c4 0 5.38-2.81 5.38-5.72 0-3.33-2.45-5.01-4.91-5.01-3.89 0-5.51 2.8-5.63 5.01-0.13 2.86 2.6 5.72 5.16 5.72z" stroke="#78D5A7" stroke-miterlimit="10" stroke-width="3.672"/>
  <path d="m32.91 110.1c4 0 6.15-3.09 5.78-6.38-0.36-3.26-2.71-4.68-5.47-4.68-3.43 0-5.88 3.07-5.88 5.77 0 3.07 2.64 5.29 5.57 5.29z" stroke="#C3EFB1" stroke-miterlimit="10" stroke-width="3.672"/>
  <path d="m116.1 115.6h22.03v61.05c-6.13 2.51-13.31 2.99-22.03 2.78v-63.83z" fill="url(#paint6_linear_453_31174)"/>
  <path d="m146 122.6h22.55v40.11l-5.53-5.53c-4.97 6.71-8.06 10.85-17.02 15.4v-49.98z" fill="url(#paint7_linear_453_31174)"/>
  <path d="m85.52 145h22.22v32.98c-8.57-1.46-13.89-4.85-22.22-10.95v-22.03z" fill="url(#paint8_linear_453_31174)"/>
  <path d="m137.9 145c-8.17 2.74-12.42 4-21.82 4.86v29.64c8.14 0 12.84-1.41 21.82-3.29v-31.21z" fill="url(#paint9_linear_453_31174)"/>
  <path d="m168.6 135.9c-7.9 3.55-12.74 5.95-22.54 8.02l-0.11 28.69c6.52-3.66 10.18-6.82 16.8-15.4l5.85 5.53v-26.84z" fill="url(#paint10_linear_453_31174)"/>
  <path d="m107.7 154.1c-8.06 1.73-12.15 2.97-22.22 3.59v9.34c5.19 4.8 12.39 9.18 22.22 10.85v-23.78z" fill="url(#paint11_linear_453_31174)"/>
  <path d="m220 13.28c-11.47 0.55-19.71 10.48-19.18 21.48 0.58 12.01 9.99 19.2 20.24 18.6 11.01-0.67 18.67-10.45 17.98-21.33-0.15-2.42-0.75-4.19-1.48-5.91l-8.09 8.62-0.11-2.62 1.83-16.91c-3.44-1.69-6.63-2.16-11.19-1.93z" fill="#F2DD53" stroke="url(#paint12_linear_453_31174)" stroke-miterlimit="10" stroke-width="5.625"/>
  <path d="m206.8 47.41-56.78 60.42-23.18-18.25-40.12 43.53" stroke="url(#paint13_linear_453_31174)" stroke-miterlimit="10" stroke-width="6.094"/>
  <path d="m209.2 32.7 9.29 8.52 21.82-25.2" stroke="url(#paint14_linear_453_31174)" stroke-miterlimit="10" stroke-width="5.625"/>
  <path d="m117.5 238.7c-60.16 0-109.7-49.4-109.7-112.4 0-62.11 49.1-113.6 110-113.6 27.5 0 51.85 10.02 74.53 29.07l0.21 0.31-36.03 38.15-0.93-0.93c-10.67-8.7-22.57-13.68-37.05-13.68-31.58 0-58.43 28.01-58.43 60.2 0 30.33 25.76 59.18 59.35 59.18 15.83 0 28.38-5.4 42.63-18.96l38.05 36.26-2.23 2.46c-21.76 20.74-44.02 33.92-80.41 33.92zm0.31-220c-57.91 0-104.3 48.25-104.3 107.6 0 59.33 47.05 106.4 104 106.4 32.52 0 53.14-11.56 73.66-30.41l-28.12-28.12c-13.02 12.2-25.9 17.36-43.58 17.36-36.7 0-65.37-31.58-65.37-65.67 0-35.02 28.88-66.82 64.45-66.82 14.53 0 26.69 4.65 37.26 13.02l28.12-29.63c-19.86-15.97-41.05-23.7-66.11-23.7z" fill="url(#paint15_linear_453_31174)"/>
  <defs>
    <linearGradient id="paint0_linear_453_31174" x1="219.4" x2="219.4" y1="64.36" y2="201.9" gradientUnits="userSpaceOnUse">
      <stop stop-color="#F2DD53" offset="0"/>
      <stop stop-color="#F2DD53" offset="1e-4"/>
      <stop stop-color="#14B670" offset=".51"/>
      <stop stop-color="#06847B" offset="1"/>
    </linearGradient>
    <linearGradient id="paint1_linear_453_31174" x1="219.6" x2="219.6" y1="64.46" y2="112.1" gradientUnits="userSpaceOnUse">
      <stop stop-color="#F2DD53" offset="0"/>
      <stop stop-color="#14B670" offset=".51"/>
      <stop stop-color="#06847B" offset="1"/>
    </linearGradient>
    <linearGradient id="paint2_linear_453_31174" x1="187.8" x2="187.8" y1="92.17" y2="192.7" gradientUnits="userSpaceOnUse">
      <stop stop-color="#D3D965" offset="0"/>
      <stop stop-color="#39BBA1" offset=".4948"/>
      <stop stop-color="#36A9CE" offset="1"/>
    </linearGradient>
    <linearGradient id="paint3_linear_453_31174" x1="187.8" x2="187.8" y1="92.17" y2="132" gradientUnits="userSpaceOnUse">
      <stop stop-color="#D3D965" offset="0"/>
      <stop stop-color="#97CB74" offset=".4948"/>
      <stop stop-color="#39BBA1" offset="1"/>
    </linearGradient>
    <linearGradient id="paint4_linear_453_31174" x1="107.2" x2="107.2" y1="14.99" y2="235" gradientUnits="userSpaceOnUse">
      <stop stop-color="#14B670" offset="0"/>
      <stop stop-color="#066A72" offset="1"/>
    </linearGradient>
    <linearGradient id="paint5_linear_453_31174" x1="104.8" x2="111.4" y1="11.95" y2="236.7" gradientUnits="userSpaceOnUse">
      <stop stop-color="#067A5B" offset="0"/>
      <stop stop-color="#0B3458" offset="1"/>
    </linearGradient>
    <linearGradient id="paint6_linear_453_31174" x1="127.1" x2="127.1" y1="115.6" y2="179.6" gradientUnits="userSpaceOnUse">
      <stop stop-color="#92ECC7" offset="0"/>
      <stop stop-color="#36A9CE" offset="1"/>
    </linearGradient>
    <linearGradient id="paint7_linear_453_31174" x1="157.2" x2="157.2" y1="122.6" y2="172.6" gradientUnits="userSpaceOnUse">
      <stop stop-color="#92ECC7" offset="0"/>
      <stop stop-color="#36A9CE" offset="1"/>
    </linearGradient>
    <linearGradient id="paint8_linear_453_31174" x1="96.63" x2="96.63" y1="145" y2="178" gradientUnits="userSpaceOnUse">
      <stop stop-color="#92ECC7" offset="0"/>
      <stop stop-color="#36A9CE" offset="1"/>
    </linearGradient>
    <linearGradient id="paint9_linear_453_31174" x1="127" x2="127" y1="145" y2="179.5" gradientUnits="userSpaceOnUse">
      <stop stop-color="#36A9CE" offset="0"/>
      <stop stop-color="#36A9CE" offset="1"/>
    </linearGradient>
    <linearGradient id="paint10_linear_453_31174" x1="157.3" x2="157.3" y1="135.9" y2="172.6" gradientUnits="userSpaceOnUse">
      <stop stop-color="#36A9CE" offset="0"/>
      <stop stop-color="#36A9CE" offset="1"/>
    </linearGradient>
    <linearGradient id="paint11_linear_453_31174" x1="96.63" x2="96.63" y1="154.1" y2="177.9" gradientUnits="userSpaceOnUse">
      <stop stop-color="#36A9CE" offset="0"/>
      <stop stop-color="#36A9CE" offset="1"/>
    </linearGradient>
    <linearGradient id="paint12_linear_453_31174" x1="219.8" x2="219.8" y1="10.94" y2="55.71" gradientUnits="userSpaceOnUse">
      <stop stop-color="#067A5B" offset="0"/>
      <stop stop-color="#0B3458" offset="1"/>
    </linearGradient>
    <linearGradient id="paint13_linear_453_31174" x1="146.8" x2="146.8" y1="44.92" y2="133.1" gradientUnits="userSpaceOnUse">
      <stop stop-color="#067A5B" offset="0"/>
      <stop stop-color="#0B3458" offset="1"/>
    </linearGradient>
    <linearGradient id="paint14_linear_453_31174" x1="224.7" x2="224.7" y1="14.79" y2="42.94" gradientUnits="userSpaceOnUse">
      <stop stop-color="#067A5B" offset="0"/>
      <stop stop-color="#0B3458" offset="1"/>
    </linearGradient>
    <linearGradient id="paint15_linear_453_31174" x1="104.1" x2="110.7" y1="10.94" y2="235.7" gradientUnits="userSpaceOnUse">
      <stop stop-color="#067A5B" offset="0"/>
      <stop stop-color="#0B3458" offset="1"/>
    </linearGradient>
  </defs>
</svg>