<svg xmlns="http://www.w3.org/2000/svg" width="256" height="256" fill="none" viewBox="0 0 256 256">
<!-- SVG created with Arrow, by QuiverAI (https://quiver.ai) -->
  <path d="m115.4 22.68c-32.04 4.71-58.99 25.45-74.27 53.28 10.11-8.17 21.68-11.99 36.61-11.99 11.48 0 22.89 3.81 31.72 10.07v-8.93l-12.22-13.1 0.06-5.53c-3.2-0.76-5.42-2.91-5.42-6.37 0-4.46 3.99-6.25 5.38-6.25 3.42 0 6.18 2.36 6.18 5.83 0 2.78-1.55 5.07-3.74 6.25l-0.03 2.24 13.65 14.89v9.27l4.65 4.37 0.1-14.65c-7.93-7.17-9.81-14.14-9.81-21.8 0-7.65 3.52-14.54 7.14-17.58z" fill="url(#paint0_linear_230_11992)"/>
  <path d="m235.3 92.81c-12.15-30.8-34.1-55.62-72.06-68.37l-0.56-0.15c-0.59-0.2-0.84-0.27 0.15 0.05 2.01 3.99 3 8.16 3 13.38 0 10.57-5.74 19.6-14.36 25.19v34.03l1.53 11.84c6.97-14.16 17.17-28.56 46.91-29.85 13.9 0 26.62 5.8 35.39 13.88z" fill="url(#paint1_linear_230_11992)"/>
  <path d="m41.09 179.9c16.97 27.97 44.69 50.44 81.07 55.69l-1.3-1.35 36.1 1.13c28.8-7.27 52.19-25.79 68.57-50.43l-4.25-5.42c-7.81 3.92-12.66 4.27-21.16 4.27-16.51 0-29.15-8.71-37.74-18.64l-1.17 16 17.6 17.25v6.86c3.1 0.98 6.88 3.34 6.88 6.81 0 4.12-3.47 6.17-5.94 6.17-4.21 0-6.27-3.06-6.27-6.27s2.24-5.36 3.95-6.1l0.08-4.7-16.43-16.79-0.36-16.3-6.86-10.12-0.31 21.66-2.54 0.12-0.4 20.48-13.4-4.2-1.02-16.4h-12.86l-1.94-3.58-6.38 6.78-0.79 6.77-16.24 19.1 0.2 2.35c2.78 1.29 4.68 3.14 4.68 6.01 0 3.72-3.23 6.28-5.91 6.28-4.1 0-6.67-2.96-6.67-6.02s2.05-5.31 4.71-6.59l-0.17-2.94 16.96-17.34-0.07-7.37-10.32 5.81v4.92l-12.47 12.47h-5.84c-1.21 2.78-3.24 3.83-6.2 3.83-4.01 0-6.58-2.88-6.58-5.94 0-4.02 2.96-6.59 6.51-6.59 3.11 0 4.87 1.44 6.19 3.9h4.61l10.19-8.36-0.11-3.39c-6.97 2.96-10.33 2.7-19.58 2.7-14.25 0-27.3-5.08-37.02-12.52z" fill="url(#paint2_linear_230_11992)"/>
  <path d="m124.8 61.87v22.04h12.12v-22.97h2.83v22.97h8.87v-23.09c8.64-4.91 14.8-13.6 14.8-22.65 0-13.35-11.18-24.36-25.77-24.36-13.48 0-24.93 12.13-24.93 24.96 0 9.31 4.7 18.05 12.08 23.1z" fill="url(#paint3_linear_230_11992)" stroke="#105161" stroke-miterlimit="10" stroke-width="3.113"/>
  <path d="m136.1 21.08v3.9c-4.58 0.43-7.82 3.31-7.82 7.52 0 5.86 5.42 7.23 9.32 8.21 3.2 0.83 5.66 1.65 5.66 4.01 0 1.71-2.05 3.13-4.83 3.13-2.47 0-4.72-1.19-6.66-2.83l-3.47 2.57c2.46 2.57 5.32 4.28 8.48 4.8v3.03h3.32v-3.64c5.08-0.95 7.86-3.91 7.86-7.88 0-5.66-5.25-6.87-9.15-8.09-2.66-0.82-5.01-1.64-5.01-3.79 0-1.91 2.16-3.1 4.72-3.1 2.39 0 4.28 0.99 5.99 2.41l3.16-2.87c-2.33-2.25-4.76-3.55-7.72-3.94v-3.44h-3.85z" fill="#C1C8D1"/>
  <path d="m162.4 93.46v-20.18l16.5-16.5v-6.32c3.2-0.98 5.25-3.13 5.25-5.39 0-2.96-1.85-4.24-4.42-4.24-2.96 0-4.59 2.35-4.59 4.82 0 2.05 1.64 3.57 3.06 4.39v5.76l-14.89 15.21-1.64 1.64v22.33" stroke="#C1C8D1" stroke-miterlimit="10" stroke-width="3.113"/>
  <path d="m175.4 86.64v-9.45l10.74-10.75h13.45c0.67 2.35 2.04 3.77 4.6 3.77 3.1 0 4.74-2.46 4.74-4 0-3.28-1.74-4.72-4.74-4.72-2.56 0-3.93 1.91-4.6 4.47h-13.45l-11.33 11.33v10.52" stroke="#C1C8D1" stroke-miterlimit="10" stroke-width="2.594"/>
  <path d="m100.2 67.46v-4.39l-10.74-10.74h-7.42c-0.76 2.56-2.18 4.61-5.04 4.61-3.1 0-4.74-2.47-4.74-4.29 0-3.28 1.74-4.73 4.2-4.73 2.66 0 4.08 1.78 5.03 3.49h7.97l11.33 11.33v3.7" stroke="#C1C8D1" stroke-miterlimit="10" stroke-width="2.594"/>
  <path d="m164.3 167v16.79l16.63 16.63v5.66" stroke="#C1C8D1" stroke-miterlimit="10" stroke-width="3.113"/>
  <path d="m187.4 196.4 6.62 0.13c1.12-2.86 2.54-4.91 5.11-4.91 3.32 0 4.63 2.35 4.63 4.58 0 3.09-2.46 4.8-4.63 4.8-2.96 0-4.48-1.98-5.11-4.34" stroke="#C1C8D1" stroke-miterlimit="10" stroke-width="2.594"/>
  <path d="m137.2 178.4v15.61" stroke="#C1C8D1" stroke-miterlimit="10" stroke-width="3.113"/>
  <path d="m149.3 177.1v19.55" stroke="#C1C8D1" stroke-miterlimit="10" stroke-width="3.113"/>
  <path d="m126.2 177.8v18.03" stroke="#C1C8D1" stroke-miterlimit="10" stroke-width="3.113"/>
  <path d="m138.2 240.2c13.6-0.64 25.54-12.08 25.54-26.68 0-12-7.75-20.39-18.83-22.3-1.93-0.34-3.87-0.51-5.66-0.51-13.81 0-25.32 10.12-25.32 24.21 0 13.52 9.06 24.84 22.22 25.28h2.05z" fill="url(#paint4_linear_230_11992)" stroke="#103770" stroke-miterlimit="10" stroke-width="2.594"/>
  <path d="m137.6 235.4c11.18 0 20.24-10.37 20.24-20.82 0-10.87-8.97-19.54-19.42-19.54-11.55 0-19.95 9.06-19.95 20.13 0 10.74 8.82 20.23 19.13 20.23z" fill="url(#paint5_linear_230_11992)" stroke="#96AAB6" stroke-miterlimit="10" stroke-width="2.594"/>
  <path d="m136.7 201v2.81c-3.88 0.51-6.74 2.97-6.74 6.27 0 4.75 4.71 5.93 8.06 6.84 2.81 0.79 4.23 1.36 4.23 2.99 0 1.32-1.77 2.4-4.13 2.4-2.05 0-3.53-1.08-5.4-2.53l-2.96 1.95c1.94 2.25 4.19 3.48 6.76 3.87v2.78h2.66v-2.88c4.21-0.76 6.67-3.22 6.67-6.54 0-4.42-4.52-5.4-7.91-6.55-2.15-0.76-3.67-1.42-3.67-2.97 0-1.42 1.71-2.31 3.96-2.31 1.94 0 3.39 0.78 4.91 1.97l2.68-2.36c-1.94-1.84-3.99-2.93-6.45-3.23v-2.51h-2.67z" fill="#D1D9DF"/>
  <path d="m151.1 83.83h-27.97l-0.83-0.62c-11.25-10.74-24.12-17.1-43.6-17.1-30.02 0-57.01 24.52-57.72 56.8l26.25 0.18c2.05-16.9 15.56-29.18 31.56-29.18 9.9 0 17.56 3.9 25.9 12.39l16.39-18.09 2.05 0.4v89.14h29.61v-26.99c6.68 15.33 21.95 28.62 45.44 28.62 8.47 0 16-2.17 23.75-6.47l11.45 9.82 13.59-14.89-9.82-10.35c6.03-8.81 8.69-15.27 8.69-27.16 0-25.25-20.61-47.32-46.44-47.32-20.62 0-37.7 12.12-45.98 25.95l-1.09 0.1 0.41-25.23h-1.64zm48.55 21.35c12.13 0 22.44 11.76 22.44 24.63 0 5.6-1.42 9.38-3.37 13.1l-8.47-10.69-12.57 13.28 9.55 9.92c-2.46 0.89-4.41 1.29-7.88 1.29-13.02 0-22.56-11.74-22.56-25.49 0-13.59 10.34-26.04 22.86-26.04z" fill="url(#paint6_linear_230_11992)" stroke="#105161" stroke-miterlimit="10" stroke-width="2.594"/>
  <path d="m21.61 136.1c2.88 27.8 26.37 51.02 57.12 51.02 18.03 0 31.08-7.97 42.26-18.56l-15.93-19.3c-7.15 8.47-13.25 12.62-24.98 12.62-13.98 0-26.8-10.43-31.37-25.73l-27.1-0.05z" fill="url(#paint7_linear_230_11992)" stroke="#082955" stroke-miterlimit="10" stroke-width="2.594"/>
  <path d="m29.92 122.7c1.42-26 22.83-44.6 48.8-44.6 12.46 0 22.47 4.8 31.47 12.96l-5.02 6.54c-7.65-7.15-15.33-9.65-25.34-9.65-21.15 0-38.07 16.15-39.61 34.75h-10.3z" fill="url(#paint8_linear_230_11992)"/>
  <path d="m34.39 136.1c3.82 21.65 21.22 38.82 44.53 38.82 13.15 0 23.79-6.06 31.09-12.12l-5.66-5.65c-7.12 6.56-14.53 9.45-24.17 9.45-17.26 0-31.32-12.89-35.04-30.5h-10.75z" fill="url(#paint9_linear_230_11992)"/>
  <path d="m8.12 127.4 51.02-0.05 3.75-7.14 6.97 19 8.86-35.35 10 45.04 9.02-27.78 4.97 7.86h19.52v3.62h-20.13l-4.02-7.65-8.86 25.4-9.72-44.25-9.38 33.48-7.1-19.01-4.11 8.47-50.79 0.07v-1.71z" fill="url(#paint10_linear_230_11992)" stroke="url(#paint10_linear_230_11992)" stroke-linejoin="round" stroke-width="2.594"/>
  <path d="m126.9 88.71h21.05v83.35h-20.14l-0.02-83.35h-0.89z" fill="url(#paint12_linear_230_11992)" stroke="#00204E" stroke-miterlimit="10" stroke-width="3.113"/>
  <path d="m131.6 93.91h11.92v74.61h-12.35l0.03-74.61h0.4z" fill="url(#paint13_linear_230_11992)"/>
  <path d="m199.4 88.21c-24.38 0-42.08 19.88-42.08 42.81 0 23.39 17.85 43.7 41.61 43.7 8.97 0 16.27-2.66 23.69-7.11l10.9 9.81 8.7-9.81-9.82-9.82c6.68-8.47 9.73-15.93 9.73-27.57 0-22.53-19-42.01-42.73-42.01zm-0.01 11.45c17.4 0 28.41 16.5 28.41 30.35 0 8.7-2.96 15.35-6.96 21.31l-11.01-13.29-7.32 7.98 10.91 11.35c-4.79 2.69-7.99 3.25-14.28 3.25-15.42 0-27.11-14.33-27.11-29.9 0-15.07 12.36-31.05 27.36-31.05z" fill="url(#paint14_linear_230_11992)" stroke="url(#paint14_linear_230_11992)" stroke-miterlimit="10" stroke-width="2.594"/>
  <defs>
    <linearGradient id="paint0_linear_230_11992" x1="53.89" x2="114.1" y1="28.46" y2="72.93" gradientUnits="userSpaceOnUse">
      <stop stop-color="#082955" offset="0"/>
      <stop stop-color="#178A9E" offset="1"/>
    </linearGradient>
    <linearGradient id="paint1_linear_230_11992" x1="154.9" x2="218.6" y1="26.74" y2="91.89" gradientUnits="userSpaceOnUse">
      <stop stop-color="#11998E" offset="0"/>
      <stop stop-color="#02858E" offset="1"/>
    </linearGradient>
    <linearGradient id="paint2_linear_230_11992" x1="70.18" x2="116.5" y1="166.4" y2="238.6" gradientUnits="userSpaceOnUse">
      <stop stop-color="#082955" offset="0"/>
      <stop stop-color="#173F81" offset="1"/>
    </linearGradient>
    <linearGradient id="paint3_linear_230_11992" x1="127.2" x2="151.7" y1="17" y2="76.7" gradientUnits="userSpaceOnUse">
      <stop stop-color="#01958D" offset="0"/>
      <stop stop-color="#2A627B" offset="1"/>
    </linearGradient>
    <linearGradient id="paint4_linear_230_11992" x1="124.1" x2="154.8" y1="193.4" y2="236.9" gradientUnits="userSpaceOnUse">
      <stop stop-color="#103770" offset="0"/>
      <stop stop-color="#16517D" offset="1"/>
    </linearGradient>
    <linearGradient id="paint5_linear_230_11992" x1="125.2" x2="150.3" y1="198.4" y2="229.3" gradientUnits="userSpaceOnUse">
      <stop stop-color="#178A9E" offset="0"/>
      <stop stop-color="#015B7A" offset="1"/>
    </linearGradient>
    <linearGradient id="paint6_linear_230_11992" x1="133.6" x2="133.6" y1="82.12" y2="183.6" gradientUnits="userSpaceOnUse">
      <stop stop-color="#022044" offset="0"/>
      <stop stop-color="#08456B" offset="1"/>
    </linearGradient>
    <linearGradient id="paint7_linear_230_11992" x1="71.03" x2="71.03" y1="133.2" y2="188.1" gradientUnits="userSpaceOnUse">
      <stop stop-color="#1B2868" offset="0"/>
      <stop stop-color="#173F81" offset="1"/>
    </linearGradient>
    <linearGradient id="paint8_linear_230_11992" x1="42.16" x2="70.94" y1="80.98" y2="126.4" gradientUnits="userSpaceOnUse">
      <stop stop-color="#33D1CD" offset="0"/>
      <stop stop-color="#286193" offset="1"/>
    </linearGradient>
    <linearGradient id="paint9_linear_230_11992" x1="42.18" x2="64.06" y1="137.5" y2="179.3" gradientUnits="userSpaceOnUse">
      <stop stop-color="#204A87" offset="0"/>
      <stop stop-color="#2694C1" offset="1"/>
    </linearGradient>
    <linearGradient id="paint10_linear_230_11992" x1="8.116" x2="122.2" y1="126.6" y2="126.6" gradientUnits="userSpaceOnUse">
      <stop stop-color="#082955" offset="0"/>
      <stop stop-color="#2BA6A6" offset="1"/>
    </linearGradient>
    <linearGradient id="paint12_linear_230_11992" x1="137.4" x2="137.4" y1="87.17" y2="173.6" gradientUnits="userSpaceOnUse">
      <stop stop-color="#00204E" offset="0"/>
      <stop stop-color="#00204E" offset="1"/>
    </linearGradient>
    <linearGradient id="paint13_linear_230_11992" x1="137.4" x2="137.4" y1="92.65" y2="169.8" gradientUnits="userSpaceOnUse">
      <stop stop-color="#B6C2CC" offset="0"/>
      <stop stop-color="#F5F9FE" offset=".4948"/>
      <stop stop-color="#87949E" offset="1"/>
    </linearGradient>
    <linearGradient id="paint14_linear_230_11992" x1="199.7" x2="199.7" y1="86.67" y2="179" gradientUnits="userSpaceOnUse">
      <stop stop-color="#F0F6FE" offset="0"/>
      <stop stop-color="#B6C2CC" offset=".4948"/>
      <stop stop-color="#627A8A" offset="1"/>
    </linearGradient>
  </defs>
</svg>